<svg xmlns="http://www.w3.org/2000/svg" xmlns:xlink="http://www.w3.org/1999/xlink" width="239.88" height="35.515" viewBox="0 0 239.88 35.515">
  <defs>
    <linearGradient id="linear-gradient" y1="-0.058" x2="0.92" y2="1.079" gradientUnits="objectBoundingBox">
      <stop offset="0" stop-color="#0e57ce"/>
      <stop offset="0.267" stop-color="#4f51d6"/>
      <stop offset="0.513" stop-color="#844ddc"/>
      <stop offset="0.724" stop-color="#aa4ae1"/>
      <stop offset="0.894" stop-color="#c148e3"/>
      <stop offset="1" stop-color="#ca48e5"/>
    </linearGradient>
  </defs>
  <g id="Group_9" data-name="Group 9" transform="translate(-88.242 -224.375)">
    <path id="Union_1" data-name="Union 1" d="M-9915.384,231.138l-4.826,5.029-4.747-4.948-4.747,4.948-20.174-21.025,7.839-13.267h43.429l8.226,13.267-20.174,21.025Zm4.825.794,16.1-16.778-6.562-10.131h-5.284l6.272,10.118-13.316,13.878Zm-35.241-16.778,16.1,16.778,2.716-2.83-13.393-13.96,5.976-10.118h-5.142Z" transform="translate(10038.743 23)" stroke="rgba(0,0,0,0)" stroke-miterlimit="10" stroke-width="1" fill="url(#linear-gradient)"/>
    <g id="Group_5" data-name="Group 5" transform="translate(166.481 224.874)">
      <path id="Path_44" data-name="Path 44" d="M85.5,212.237a2.535,2.535,0,0,1,1.888.595,2.45,2.45,0,0,1,.572,1.762v.847a2.45,2.45,0,0,1-.572,1.762,2.535,2.535,0,0,1-1.888.595H80.768v2.2a.222.222,0,0,1-.252.252H79.281q-.263,0-.263-.252V212.58a.3.3,0,0,1,.343-.343Zm-4.736,4.05H85.15a1.108,1.108,0,0,0,.824-.252,1.074,1.074,0,0,0,.24-.766v-.435a1.074,1.074,0,0,0-.24-.767,1.109,1.109,0,0,0-.824-.252H80.917q-.148,0-.149.137Z" transform="translate(-77.738 -212.237)" fill="#4f51d6"/>
      <path id="Path_45" data-name="Path 45" d="M170.428,212.237a2.535,2.535,0,0,1,1.888.595,2.45,2.45,0,0,1,.572,1.762v.652a2.672,2.672,0,0,1-.4,1.556,1.913,1.913,0,0,1-1.3.732l1.956,2.425a.181.181,0,0,1,.034.172q-.023.114-.183.114h-1.476a.435.435,0,0,1-.206-.034.4.4,0,0,1-.114-.114l-1.808-2.38h-3.7v2.277a.222.222,0,0,1-.252.252H164.2q-.263,0-.263-.252V212.58a.3.3,0,0,1,.343-.343Zm-4.736,4.084h4.382a1.108,1.108,0,0,0,.824-.252,1.073,1.073,0,0,0,.24-.767v-.481a1.074,1.074,0,0,0-.24-.767,1.109,1.109,0,0,0-.824-.252H165.84q-.149,0-.149.137Z" transform="translate(-147.434 -212.237)" fill="#4f51d6"/>
      <path id="Path_46" data-name="Path 46" d="M251.895,212.237a.223.223,0,0,1,.252.252v7.505a.222.222,0,0,1-.252.252h-1.236q-.263,0-.263-.252v-7.505q0-.251.263-.252Z" transform="translate(-218.387 -212.237)" fill="#4f51d6"/>
      <path id="Path_47" data-name="Path 47" d="M299.62,212.237a2.39,2.39,0,0,1,.435.034.8.8,0,0,1,.32.132.961.961,0,0,1,.246.263,2.726,2.726,0,0,1,.223.44l2.38,5.492a.162.162,0,0,0,.16.1h.137a.162.162,0,0,0,.16-.1l2.38-5.492a2.76,2.76,0,0,1,.223-.44.968.968,0,0,1,.246-.263.8.8,0,0,1,.315-.132,2.291,2.291,0,0,1,.429-.034H308.5a.966.966,0,0,1,.8.269,1.557,1.557,0,0,1,.206.921v6.567q0,.252-.263.252h-1.167a.222.222,0,0,1-.252-.252v-5.972c0-.076-.031-.114-.092-.114h-.1a.142.142,0,0,0-.149.091l-2.311,5.125a3.423,3.423,0,0,1-.28.521,1.641,1.641,0,0,1-.309.349.992.992,0,0,1-.378.195,1.921,1.921,0,0,1-.5.057h-.549a1.919,1.919,0,0,1-.5-.057.99.99,0,0,1-.378-.195,1.635,1.635,0,0,1-.309-.349,3.38,3.38,0,0,1-.28-.521L299.38,214a.142.142,0,0,0-.149-.091h-.1q-.092,0-.092.114v5.972a.222.222,0,0,1-.252.252h-1.167q-.263,0-.263-.252v-6.567a1.554,1.554,0,0,1,.206-.921.983.983,0,0,1,.812-.269Z" transform="translate(-256.926 -212.237)" fill="#4f51d6"/>
      <path id="Path_48" data-name="Path 48" d="M409.975,212.237q.263,0,.263.252v1.087q0,.252-.263.252h-5a3.056,3.056,0,0,0-.738.074,1,1,0,0,0-.469.252.962.962,0,0,0-.246.48,3.478,3.478,0,0,0-.068.749v.114h6.464a.223.223,0,0,1,.252.252v.9a.223.223,0,0,1-.252.252h-6.464v.194a3.474,3.474,0,0,0,.068.749.96.96,0,0,0,.246.48.992.992,0,0,0,.469.252,3.045,3.045,0,0,0,.738.074h5q.263,0,.263.252v1.087q0,.252-.263.252h-5.034a5.846,5.846,0,0,1-1.476-.16,2.251,2.251,0,0,1-.989-.521,2.1,2.1,0,0,1-.561-.938,4.822,4.822,0,0,1-.177-1.4v-1.968a4.764,4.764,0,0,1,.177-1.4,2.105,2.105,0,0,1,.561-.932,2.3,2.3,0,0,1,.989-.526,5.663,5.663,0,0,1,1.476-.166Z" transform="translate(-342.592 -212.237)" fill="#4f51d6"/>
      <path id="Path_49" data-name="Path 49" d="M543.132,212.237a.223.223,0,0,1,.252.252v1.121q0,.263-.252.263h-5.091a3.058,3.058,0,0,0-.738.074.96.96,0,0,0-.464.252,1.027,1.027,0,0,0-.246.475,3.2,3.2,0,0,0-.074.755v1.625a3.267,3.267,0,0,0,.074.761,1.029,1.029,0,0,0,.246.481.957.957,0,0,0,.464.252,3.042,3.042,0,0,0,.738.074h5.091a.223.223,0,0,1,.252.252v1.121a.222.222,0,0,1-.252.252h-5.16a5.845,5.845,0,0,1-1.476-.16,2.25,2.25,0,0,1-.989-.521,2.1,2.1,0,0,1-.561-.938,4.819,4.819,0,0,1-.177-1.4v-1.968a4.761,4.761,0,0,1,.177-1.4,2.1,2.1,0,0,1,.561-.932,2.3,2.3,0,0,1,.989-.526,5.663,5.663,0,0,1,1.476-.166Z" transform="translate(-451.769 -212.237)" fill="#4f51d6"/>
      <path id="Path_50" data-name="Path 50" d="M619.85,212.237a.222.222,0,0,1,.252.252v2.975h5.354v-2.975a.223.223,0,0,1,.252-.252h1.236q.263,0,.263.252v7.505q0,.252-.263.252h-1.236a.222.222,0,0,1-.252-.252v-3.043H620.1v3.043a.222.222,0,0,1-.252.252h-1.236q-.263,0-.263-.252v-7.505q0-.251.263-.252Z" transform="translate(-520.365 -212.237)" fill="#4f51d6"/>
      <path id="Path_51" data-name="Path 51" d="M711.1,212.237a5.729,5.729,0,0,1,1.482.166,2.3,2.3,0,0,1,1,.526,2.065,2.065,0,0,1,.555.932,4.92,4.92,0,0,1,.172,1.4v1.968a4.981,4.981,0,0,1-.172,1.4,2.063,2.063,0,0,1-.555.938,2.254,2.254,0,0,1-1,.521,5.913,5.913,0,0,1-1.482.16h-3.535a5.845,5.845,0,0,1-1.476-.16,2.248,2.248,0,0,1-.989-.521,2.1,2.1,0,0,1-.561-.938,4.813,4.813,0,0,1-.178-1.4v-1.968a4.755,4.755,0,0,1,.178-1.4,2.1,2.1,0,0,1,.561-.932,2.3,2.3,0,0,1,.989-.526,5.663,5.663,0,0,1,1.476-.166Zm-4.988,4.862a3.2,3.2,0,0,0,.074.749,1.029,1.029,0,0,0,.246.48.955.955,0,0,0,.463.252,3.046,3.046,0,0,0,.738.074h3.4a3.046,3.046,0,0,0,.738-.074.952.952,0,0,0,.463-.252,1.023,1.023,0,0,0,.246-.48,3.2,3.2,0,0,0,.074-.749v-1.716a3.205,3.205,0,0,0-.074-.749,1.025,1.025,0,0,0-.246-.48.956.956,0,0,0-.463-.252,3.058,3.058,0,0,0-.738-.074h-3.4a3.058,3.058,0,0,0-.738.074.959.959,0,0,0-.463.252,1.03,1.03,0,0,0-.246.48,3.2,3.2,0,0,0-.074.749Z" transform="translate(-590.95 -212.237)" fill="#4f51d6"/>
      <path id="Path_52" data-name="Path 52" d="M797.926,212.237a.222.222,0,0,1,.252.252v7.505a.222.222,0,0,1-.252.252h-1.235q-.263,0-.263-.252v-7.505q0-.251.263-.252Z" transform="translate(-666.511 -212.237)" fill="#4f51d6"/>
      <path id="Path_53" data-name="Path 53" d="M851.24,212.237a.223.223,0,0,1,.252.252v1.121q0,.263-.252.263h-5.091a3.059,3.059,0,0,0-.738.074.958.958,0,0,0-.463.252,1.025,1.025,0,0,0-.246.475,3.193,3.193,0,0,0-.074.755v1.625a3.264,3.264,0,0,0,.074.761,1.026,1.026,0,0,0,.246.481.955.955,0,0,0,.463.252,3.043,3.043,0,0,0,.738.074h5.091a.223.223,0,0,1,.252.252v1.121a.222.222,0,0,1-.252.252h-5.16a5.841,5.841,0,0,1-1.476-.16,2.249,2.249,0,0,1-.99-.521,2.1,2.1,0,0,1-.561-.938,4.813,4.813,0,0,1-.177-1.4v-1.968a4.755,4.755,0,0,1,.177-1.4,2.1,2.1,0,0,1,.561-.932,2.3,2.3,0,0,1,.99-.526,5.659,5.659,0,0,1,1.476-.166Z" transform="translate(-704.631 -212.237)" fill="#4f51d6"/>
      <path id="Path_54" data-name="Path 54" d="M934.187,212.237q.263,0,.263.252v1.087q0,.252-.263.252h-5a3.061,3.061,0,0,0-.738.074.994.994,0,0,0-.469.252.958.958,0,0,0-.246.48,3.439,3.439,0,0,0-.069.749v.114h6.464a.223.223,0,0,1,.252.252v.9a.223.223,0,0,1-.252.252h-6.464v.194a3.435,3.435,0,0,0,.069.749.956.956,0,0,0,.246.48.99.99,0,0,0,.469.252,3.049,3.049,0,0,0,.738.074h5q.263,0,.263.252v1.087q0,.252-.263.252h-5.034a5.846,5.846,0,0,1-1.476-.16,2.25,2.25,0,0,1-.989-.521,2.105,2.105,0,0,1-.561-.938,4.822,4.822,0,0,1-.177-1.4v-1.968a4.763,4.763,0,0,1,.177-1.4,2.108,2.108,0,0,1,.561-.932,2.3,2.3,0,0,1,.989-.526,5.664,5.664,0,0,1,1.476-.166Z" transform="translate(-772.808 -212.237)" fill="#4f51d6"/>
      <path id="Path_55" data-name="Path 55" d="M229.453,288.8a.222.222,0,0,1,.252.252v1.087a.222.222,0,0,1-.252.252h-5.732a.568.568,0,0,0-.469.172.732.732,0,0,0-.137.469v.389q0,.641.595.641H228a2.021,2.021,0,0,1,1.5.509,1.987,1.987,0,0,1,.5,1.459v.915a1.873,1.873,0,0,1-.492,1.35,2.034,2.034,0,0,1-1.533.515h-6.338q-.264,0-.263-.252v-1.087q0-.251.263-.252h6.006a.569.569,0,0,0,.469-.172.732.732,0,0,0,.137-.469v-.469q0-.641-.595-.641h-4.29a2.019,2.019,0,0,1-1.5-.509,1.986,1.986,0,0,1-.5-1.459v-.835a1.874,1.874,0,0,1,.492-1.35,2.034,2.034,0,0,1,1.533-.515Z" transform="translate(-221.364 -275.073)" fill="#4f51d6"/>
      <path id="Path_56" data-name="Path 56" d="M313.248,288.8q.263,0,.263.252v1.087q0,.252-.263.252h-5a3.066,3.066,0,0,0-.738.074,1,1,0,0,0-.469.252.961.961,0,0,0-.246.481,3.449,3.449,0,0,0-.069.749v.114h6.464a.222.222,0,0,1,.252.252v.9a.222.222,0,0,1-.252.252h-6.464v.195a3.447,3.447,0,0,0,.069.749.96.96,0,0,0,.246.481.993.993,0,0,0,.469.252,3.057,3.057,0,0,0,.738.074h5q.263,0,.263.252v1.087q0,.252-.263.252h-5.034a5.851,5.851,0,0,1-1.476-.16,2.254,2.254,0,0,1-.99-.521,2.1,2.1,0,0,1-.56-.938,4.812,4.812,0,0,1-.177-1.4v-1.968a4.754,4.754,0,0,1,.177-1.4,2.1,2.1,0,0,1,.56-.932,2.3,2.3,0,0,1,.99-.526,5.662,5.662,0,0,1,1.476-.166Z" transform="translate(-290.012 -275.073)" fill="#4f51d6"/>
      <path id="Path_57" data-name="Path 57" d="M396.319,288.8a.222.222,0,0,1,.252.252v1.121q0,.263-.252.263h-5.091a3.058,3.058,0,0,0-.738.074.958.958,0,0,0-.463.252,1.023,1.023,0,0,0-.246.475,3.177,3.177,0,0,0-.074.755v1.625a3.251,3.251,0,0,0,.074.761,1.023,1.023,0,0,0,.246.481.956.956,0,0,0,.463.252,3.043,3.043,0,0,0,.738.074h5.091a.223.223,0,0,1,.252.252v1.121a.222.222,0,0,1-.252.252h-5.16a5.853,5.853,0,0,1-1.476-.16,2.254,2.254,0,0,1-.99-.521,2.1,2.1,0,0,1-.561-.938,4.82,4.82,0,0,1-.177-1.4v-1.968a4.762,4.762,0,0,1,.177-1.4,2.1,2.1,0,0,1,.561-.932,2.3,2.3,0,0,1,.99-.526,5.664,5.664,0,0,1,1.476-.166Z" transform="translate(-358.085 -275.073)" fill="#4f51d6"/>
      <path id="Path_58" data-name="Path 58" d="M472.91,288.8a.223.223,0,0,1,.252.252v4.565a3.255,3.255,0,0,0,.074.761,1.025,1.025,0,0,0,.246.481.955.955,0,0,0,.463.252,3.043,3.043,0,0,0,.738.074h3.169a3.043,3.043,0,0,0,.738-.074.954.954,0,0,0,.463-.252.984.984,0,0,0,.24-.481,3.513,3.513,0,0,0,.069-.761v-4.565a.223.223,0,0,1,.252-.252h1.247a.223.223,0,0,1,.252.252v4.736a4.982,4.982,0,0,1-.172,1.4,2.065,2.065,0,0,1-.555.938,2.258,2.258,0,0,1-1,.521,5.923,5.923,0,0,1-1.482.16h-3.3a5.851,5.851,0,0,1-1.476-.16,2.254,2.254,0,0,1-.99-.521,2.108,2.108,0,0,1-.561-.938,4.818,4.818,0,0,1-.177-1.4v-4.736q0-.252.263-.252Z" transform="translate(-426.576 -275.073)" fill="#4f51d6"/>
      <path id="Path_59" data-name="Path 59" d="M569.074,288.8a2.535,2.535,0,0,1,1.888.595,2.449,2.449,0,0,1,.572,1.762v.652a2.67,2.67,0,0,1-.4,1.556,1.911,1.911,0,0,1-1.3.732l1.956,2.425a.18.18,0,0,1,.034.172q-.023.115-.183.114h-1.476a.434.434,0,0,1-.206-.034.4.4,0,0,1-.114-.114l-1.807-2.38h-3.7v2.277a.222.222,0,0,1-.252.252H562.85q-.264,0-.263-.252v-7.414a.3.3,0,0,1,.343-.343Zm-4.736,4.084h4.382a1.109,1.109,0,0,0,.824-.252,1.076,1.076,0,0,0,.24-.766v-.481a1.076,1.076,0,0,0-.24-.766,1.11,1.11,0,0,0-.824-.252h-4.233q-.149,0-.149.137Z" transform="translate(-501.403 -275.073)" fill="#4f51d6"/>
      <path id="Path_60" data-name="Path 60" d="M650.54,288.8a.223.223,0,0,1,.252.252v7.505a.222.222,0,0,1-.252.252H649.3c-.176,0-.263-.084-.263-.252v-7.505c0-.168.087-.252.263-.252Z" transform="translate(-572.355 -275.073)" fill="#4f51d6"/>
      <path id="Path_61" data-name="Path 61" d="M702.456,288.8q.263,0,.263.252v1.121a.233.233,0,0,1-.263.263h-3.593v6.121a.222.222,0,0,1-.252.252h-1.247a.222.222,0,0,1-.252-.252v-6.121h-3.592a.232.232,0,0,1-.263-.263v-1.121q0-.252.263-.252Z" transform="translate(-608.644 -275.073)" fill="#4f51d6"/>
      <path id="Path_62" data-name="Path 62" d="M778.62,288.8a.309.309,0,0,1,.275.137l3.055,4.13,3.077-4.13a.308.308,0,0,1,.274-.137h1.5a.126.126,0,0,1,.126.074.148.148,0,0,1-.023.155l-4.107,5.331v2.2a.222.222,0,0,1-.252.252h-1.236q-.263,0-.263-.252v-2.2l-4.061-5.331a.157.157,0,0,1-.029-.155.125.125,0,0,1,.131-.074Z" transform="translate(-677.326 -275.073)" fill="#4f51d6"/>
    </g>
    <g id="Group_6" data-name="Group 6" transform="translate(166.48 255.614)">
      <path id="Path_63" data-name="Path 63" d="M264.229,858.189h2.5v.548h-2.5Zm.967.285h.57v3.2h-.57Z" transform="translate(-264.229 -858.153)" fill="#4f51d6"/>
      <path id="Path_64" data-name="Path 64" d="M291.536,858.189h.572v3.481h-.572Zm.3,1.487h1.98v.548h-1.98Zm1.638-1.487h.572v3.481h-.572Z" transform="translate(-286.64 -858.153)" fill="#4f51d6"/>
      <path id="Path_65" data-name="Path 65" d="M321.033,858.189h.572v3.481h-.572Zm.237,0h2.047v.548H321.27Zm0,1.48h1.783v.546H321.27Zm0,1.453h2.047v.548H321.27Z" transform="translate(-310.848 -858.153)" fill="#4f51d6"/>
      <path id="Path_66" data-name="Path 66" d="M348.313,858.177h.572v3.484h-.572Zm.237,1.5h1.2a.386.386,0,0,0,.212-.059.382.382,0,0,0,.142-.167.61.61,0,0,0,.053-.251.581.581,0,0,0-.05-.249.384.384,0,0,0-.142-.166.387.387,0,0,0-.214-.059h-1.2v-.548h1.216a1.026,1.026,0,0,1,.517.127.875.875,0,0,1,.346.359,1.232,1.232,0,0,1,0,1.075.877.877,0,0,1-.347.359,1.03,1.03,0,0,1-.516.127H348.55Zm.84.44.594-.11.915,1.655h-.687Z" transform="translate(-333.236 -858.143)" fill="#4f51d6"/>
      <path id="Path_67" data-name="Path 67" d="M377.076,858.189h.572v3.481h-.572Zm.237,0h2.047v.548h-2.047Zm0,1.48H379.1v.546h-1.783Zm0,1.453h2.047v.548h-2.047Z" transform="translate(-356.842 -858.153)" fill="#4f51d6"/>
      <path id="Path_68" data-name="Path 68" d="M422.447,858.189h.431l.689,2.526.531-2.526h.591l-.826,3.481h-.558l-.63-2.432-.659,2.432h-.558l-.826-3.481h.592l.531,2.526Z" transform="translate(-392.59 -858.153)" fill="#4f51d6"/>
      <path id="Path_69" data-name="Path 69" d="M456.861,858.189h.572v3.481h-.572Zm.3,1.487h1.98v.548h-1.98Zm1.638-1.487h.572v3.481H458.8Z" transform="translate(-422.32 -858.153)" fill="#4f51d6"/>
      <path id="Path_70" data-name="Path 70" d="M486.358,858.189h.572v3.481h-.572Zm.237,0h2.047v.548H486.6Zm0,1.48h1.784v.546H486.6Zm0,1.453h2.047v.548H486.6Z" transform="translate(-446.528 -858.153)" fill="#4f51d6"/>
      <path id="Path_71" data-name="Path 71" d="M513.639,858.189h.623l1.5,2.679-.057.062v-2.741h.555v3.479h-.627l-1.494-2.638.058-.062v2.7h-.556Z" transform="translate(-468.918 -858.153)" fill="#4f51d6"/>
      <path id="Path_72" data-name="Path 72" d="M562.455,861.67h-.584v-3.481h.584Z" transform="translate(-508.501 -858.153)" fill="#4f51d6"/>
      <path id="Path_73" data-name="Path 73" d="M578.871,858.189h2.5v.548h-2.5Zm.967.285h.57v3.2h-.57Z" transform="translate(-522.453 -858.153)" fill="#4f51d6"/>
      <path id="Path_74" data-name="Path 74" d="M626.272,858.189h.661v3.481H626.4v-2.655l.024.153-.761,2.067h-.46l-.761-2.019.024-.2v2.655h-.536v-3.481h.661l.843,2.323Z" transform="translate(-559.429 -858.153)" fill="#4f51d6"/>
      <path id="Path_75" data-name="Path 75" d="M655.344,858.189h.417l1.307,3.481h-.615l-.9-2.593-.9,2.593h-.615Zm-.692,2.272h1.831v.549h-1.831Z" transform="translate(-584.141 -858.153)" fill="#4f51d6"/>
      <path id="Path_76" data-name="Path 76" d="M681.344,858.189h2.5v.548h-2.5Zm.967.285h.57v3.2h-.57Z" transform="translate(-606.552 -858.153)" fill="#4f51d6"/>
      <path id="Path_77" data-name="Path 77" d="M707.449,858.189h2.5v.548h-2.5Zm.967.285h.57v3.2h-.57Z" transform="translate(-627.976 -858.153)" fill="#4f51d6"/>
      <path id="Path_78" data-name="Path 78" d="M734.756,858.189h.572v3.481h-.572Zm.237,0h2.047v.548h-2.047Zm0,1.48h1.784v.546h-1.784Zm0,1.453h2.047v.548h-2.047Z" transform="translate(-650.387 -858.153)" fill="#4f51d6"/>
      <path id="Path_79" data-name="Path 79" d="M762.037,858.177h.573v3.484h-.573Zm.237,1.5h1.2a.375.375,0,0,0,.354-.225.608.608,0,0,0,.053-.251.58.58,0,0,0-.05-.249.377.377,0,0,0-.357-.225h-1.2v-.548h1.216a1.026,1.026,0,0,1,.517.127.876.876,0,0,1,.346.359,1.234,1.234,0,0,1,0,1.075.877.877,0,0,1-.347.359,1.032,1.032,0,0,1-.516.127h-1.216Zm.84.44.594-.11.915,1.655h-.687Z" transform="translate(-672.776 -858.143)" fill="#4f51d6"/>
      <path id="Path_80" data-name="Path 80" d="M789.867,861.493a1.969,1.969,0,0,1-.433-.145,1.7,1.7,0,0,1-.37-.237l.3-.457a1.412,1.412,0,0,0,.451.257,1.6,1.6,0,0,0,.531.087,1,1,0,0,0,.542-.124.4.4,0,0,0,.193-.352v0a.364.364,0,0,0-.086-.255.505.505,0,0,0-.225-.139,2.828,2.828,0,0,0-.357-.083l-.014,0-.014,0-.043-.007a3.526,3.526,0,0,1-.575-.136.828.828,0,0,1-.383-.283.922.922,0,0,1-.158-.577v0a1.038,1.038,0,0,1,.148-.565.93.93,0,0,1,.431-.357,1.848,1.848,0,0,1,1.055-.08,1.933,1.933,0,0,1,.369.122,2.03,2.03,0,0,1,.351.2l-.278.471a1.663,1.663,0,0,0-.41-.218,1.2,1.2,0,0,0-.407-.074.916.916,0,0,0-.511.121.387.387,0,0,0-.181.342v0a.358.358,0,0,0,.093.261.556.556,0,0,0,.234.14q.14.044.391.094l.018,0,.018,0,.026,0,.026,0a2.832,2.832,0,0,1,.54.156.852.852,0,0,1,.363.292.919.919,0,0,1,.146.548v0a.988.988,0,0,1-.153.558.953.953,0,0,1-.445.354,1.842,1.842,0,0,1-.7.121A2.327,2.327,0,0,1,789.867,861.493Z" transform="translate(-694.957 -857.989)" fill="#4f51d6"/>
    </g>
  </g>
</svg>
